<svg xmlns="http://www.w3.org/2000/svg" viewBox="0 0 40 40">
    <path fill="#FFF" fill-opacity=".552" d="M0,19.8333333 C0,30.7867959 8.87933607,39.6666667 19.8333333,39.6666667 C30.7867959,39.6666667 39.6666667,30.7873306 39.6666667,19.8333333 C39.6666667,8.87987077 30.7867959,0 19.8333333,0 C8.87987077,0 0,8.87933607 0,19.8333333 Z M19.8333333,26.3519402 C16.2331545,26.3519402 13.3147264,23.4335122 13.3147264,19.8333333 C13.3147264,16.2331545 16.2331545,13.3147264 19.8333333,13.3147264 C23.4335122,13.3147264 26.3519402,16.2331545 26.3519402,19.8333333 C26.3519402,23.4335122 23.4335122,26.3519402 19.8333333,26.3519402 L19.8333333,26.3519402 Z"/>
    <path fill="#F0F0F0" d="M14.9145,0.0395 C6.69940308,0.0395 0.0395,6.69900205 0.0395,14.9145 C0.0395,23.1295969 6.69900205,29.7895 14.9145,29.7895 C23.1295969,29.7895 29.7895,23.129998 29.7895,14.9145 C29.7895,6.69940308 23.1295969,0.0395 14.9145,0.0395 L14.9145,0.0395 Z M14.9145,19.8034552 C12.2143659,19.8034552 10.0255448,17.6146341 10.0255448,14.9145 C10.0255448,12.2143659 12.2143659,10.0255448 14.9145,10.0255448 C17.6146341,10.0255448 19.8034552,12.2143659 19.8034552,14.9145 C19.8034552,17.6146341 17.6146341,19.8034552 14.9145,19.8034552 L14.9145,19.8034552 Z" transform="translate(4.702 4.702)"/>
</svg>